<svg width="61" height="60" viewBox="0 0 61 60" fill="none" xmlns="http://www.w3.org/2000/svg">
<rect x="0.959473" width="60" height="60" rx="12" fill="#106AD4" fill-opacity="0.1"/>
<path d="M48.9595 30V24C48.9595 20.6863 46.2732 18 42.9595 18H30.9595M12.9595 30V36C12.9595 39.3137 15.6458 42 18.9595 42L30.9595 42M21.9595 33H27.9595M30.9595 27H42.9595" stroke="#1E1E1E" stroke-width="3" stroke-linecap="round"/>
<path d="M11.1511 18.9451C9.56228 17.3563 9.56228 14.7804 11.1511 13.1916C12.7398 11.6028 15.3158 11.6028 16.9046 13.1916L22.6467 18.9338C23.6989 19.9859 24.3588 21.3668 24.5166 22.8464L24.9595 27L20.8059 26.5571C19.3263 26.3993 17.9454 25.7394 16.8932 24.6873L11.1511 18.9451Z" stroke="#1E1E1E" stroke-width="3" stroke-linecap="round" stroke-linejoin="round"/>
<path d="M48.9595 39.0838V46.5991L44.4948 47.7974C43.4886 48.0675 42.4304 48.0675 41.4241 47.7974L36.9595 46.5991V39.0838M33.9595 37.5629L42.9595 33L51.9595 37.5629L42.9595 42.1257L33.9595 37.5629Z" stroke="#106AD4" stroke-width="3" stroke-linecap="round" stroke-linejoin="round"/>
</svg>
