<svg width="61" height="60" viewBox="0 0 61 60" fill="none" xmlns="http://www.w3.org/2000/svg">
<rect x="0.748291" width="60" height="60" rx="12" fill="#106AD4" fill-opacity="0.1"/>
<path d="M30.7483 15V30M30.7483 42H18.7483C15.4346 42 12.7483 39.3137 12.7483 36V21C12.7483 17.6863 15.4346 15 18.7483 15H42.7483C46.062 15 48.7483 17.6863 48.7483 21V28.5M18.7483 21H24.7483M36.7483 21H39.7483M36.7483 27H42.7483M18.7483 27H21.7483M18.7483 33H24.7483" stroke="#1E1E1E" stroke-width="3" stroke-linecap="round"/>
<path d="M51.7483 41.9999L51.7483 39.0002C51.7483 35.6864 49.0619 33.0001 45.7481 33.0002L42.7481 33.0002C39.4345 33.0003 36.7483 35.6866 36.7483 39.0002L36.7483 41.9999C36.7483 45.3137 39.4346 48 42.7484 47.9999L45.7484 47.9999C49.062 47.9998 51.7483 45.3136 51.7483 41.9999Z" stroke="#106AD4" stroke-width="3" stroke-linecap="round" stroke-linejoin="round"/>
<path d="M44.2407 45C43.8143 45 43.4843 44.867 43.2508 44.6011C43.0173 44.3351 42.9006 43.9521 42.9006 43.4521V41.4096C42.9006 40.9096 43.0173 40.5266 43.2508 40.2606C43.4843 39.9947 43.8143 39.8617 44.2407 39.8617C44.6772 39.8617 45.0123 39.9947 45.2458 40.2606C45.4894 40.5266 45.6112 40.9096 45.6112 41.4096V43.4521C45.6112 43.9521 45.4945 44.3351 45.261 44.6011C45.0275 44.867 44.6874 45 44.2407 45ZM44.2407 38.7287C43.7635 38.7287 43.393 38.6117 43.129 38.3777C42.8752 38.1436 42.7483 37.8032 42.7483 37.3564C42.7483 36.9202 42.8752 36.5851 43.129 36.3511C43.393 36.117 43.7635 36 44.2407 36C44.7381 36 45.1138 36.117 45.3676 36.3511C45.6214 36.5851 45.7483 36.9202 45.7483 37.3564C45.7483 37.8032 45.6214 38.1436 45.3676 38.3777C45.1138 38.6117 44.7381 38.7287 44.2407 38.7287Z" fill="#1E1E1E"/>
</svg>
