<svg width="52" height="52" viewBox="0 0 52 52" fill="none" xmlns="http://www.w3.org/2000/svg">
<g clip-path="url(#clip0_955_4661)">
<path d="M0.5 12.0711V46.5C0.5 49.2614 2.73858 51.5 5.5 51.5H39.9289C44.3835 51.5 46.6143 46.1143 43.4645 42.9645L9.03553 8.53553C5.88571 5.38571 0.5 7.61654 0.5 12.0711Z" fill="#106AD4"/>
<path fill-rule="evenodd" clip-rule="evenodd" d="M38.3491 38.3492C37.636 39.0624 36.4798 39.0624 35.7667 38.3492L28.7943 31.3769C28.0812 30.6638 28.0812 29.5075 28.7943 28.7944C29.5075 28.0813 30.6637 28.0813 31.3768 28.7944L38.3491 35.7667C39.0623 36.4799 39.0623 37.6361 38.3491 38.3492Z" fill="#3A405A"/>
<path fill-rule="evenodd" clip-rule="evenodd" d="M38.3493 8.65086C39.0625 9.36399 39.0625 10.5202 38.3493 11.2333L31.377 18.2057C30.6639 18.9188 29.5077 18.9188 28.7945 18.2057C28.0814 17.4925 28.0814 16.3363 28.7945 15.6232L35.7669 8.65086C36.48 7.93773 37.6362 7.93773 38.3493 8.65086Z" fill="#3A405A"/>
<path fill-rule="evenodd" clip-rule="evenodd" d="M23.5 2.5C24.6046 2.5 25.5 3.31757 25.5 4.32609V42.6739C25.5 43.6824 24.6046 44.5 23.5 44.5C22.3954 44.5 21.5 43.6824 21.5 42.6739V4.32609C21.5 3.31757 22.3954 2.5 23.5 2.5Z" fill="#3A405A"/>
<path fill-rule="evenodd" clip-rule="evenodd" d="M18.2055 28.7944C18.9187 29.5075 18.9187 30.6638 18.2055 31.3769L11.2332 38.3492C10.5201 39.0624 9.36387 39.0624 8.65074 38.3492C7.9376 37.6361 7.9376 36.4799 8.65074 35.7667L15.6231 28.7944C16.3362 28.0813 17.4924 28.0813 18.2055 28.7944Z" fill="#3A405A"/>
<path fill-rule="evenodd" clip-rule="evenodd" d="M18.2056 18.2057C17.4925 18.9188 16.3362 18.9188 15.6231 18.2057L8.65078 11.2333C7.93765 10.5202 7.93765 9.36399 8.65078 8.65086C9.36391 7.93773 10.5201 7.93773 11.2333 8.65086L18.2056 15.6232C18.9187 16.3363 18.9187 17.4925 18.2056 18.2057Z" fill="#3A405A"/>
<path fill-rule="evenodd" clip-rule="evenodd" d="M44.5 23.5C44.5 24.6046 43.6824 25.5 42.6739 25.5L4.32609 25.5C3.31757 25.5 2.5 24.6046 2.5 23.5C2.5 22.3954 3.31757 21.5 4.32609 21.5L42.6739 21.5C43.6824 21.5 44.5 22.3954 44.5 23.5Z" fill="#3A405A"/>
</g>
<defs>
<clipPath id="clip0_955_4661">
<rect width="51.5" height="51.5" fill="white" transform="translate(0.5)"/>
</clipPath>
</defs>
</svg>
