<svg width="45" height="44" viewBox="0 0 45 44" fill="none" xmlns="http://www.w3.org/2000/svg">
<path d="M1 12C1 5.64873 6.14873 0.5 12.5 0.5H32.5C38.8513 0.5 44 5.64873 44 12V32C44 38.3513 38.8513 43.5 32.5 43.5H12.5C6.14873 43.5 1 38.3513 1 32V12Z" fill="#187DC1"/>
<path d="M1 12C1 5.64873 6.14873 0.5 12.5 0.5H32.5C38.8513 0.5 44 5.64873 44 12V32C44 38.3513 38.8513 43.5 32.5 43.5H12.5C6.14873 43.5 1 38.3513 1 32V12Z" stroke="#B3B3B3"/>
<path d="M29.4831 21.7253C29.4595 21.6232 29.4108 21.5285 29.3414 21.4498C29.272 21.371 29.1841 21.3107 29.0855 21.274L24.5043 20.5642L25.6655 13.7619C25.6922 13.6275 25.6749 13.4881 25.6162 13.3642C25.5576 13.2403 25.4605 13.1383 25.3394 13.0733C25.217 13.0085 25.0766 12.9858 24.94 13.0087C24.8033 13.0316 24.6781 13.0988 24.5838 13.1999L15.6759 22.6989C15.6029 22.7743 15.5501 22.8667 15.5223 22.9676C15.4945 23.0686 15.4927 23.1749 15.5169 23.2768C15.5418 23.3783 15.5909 23.4723 15.6601 23.5508C15.7294 23.6294 15.8166 23.6902 15.9145 23.728L20.4957 24.4378L19.3345 31.2401C19.3078 31.3745 19.3251 31.5139 19.3837 31.6378C19.4424 31.7617 19.5395 31.8637 19.6606 31.9288C19.7519 31.9746 19.8526 31.999 19.9549 32C20.0413 32.0004 20.1269 31.983 20.2063 31.9489C20.2857 31.9149 20.3571 31.8649 20.4162 31.8021L29.3241 22.3031C29.3971 22.2277 29.4499 22.1353 29.4777 22.0344C29.5055 21.9334 29.5073 21.8271 29.4831 21.7253Z" fill="white"/>
</svg>
