<svg width="45" height="44" viewBox="0 0 45 44" fill="none" xmlns="http://www.w3.org/2000/svg">
<path d="M1 12C1 5.64873 6.14873 0.5 12.5 0.5H32.5C38.8513 0.5 44 5.64873 44 12V32C44 38.3513 38.8513 43.5 32.5 43.5H12.5C6.14873 43.5 1 38.3513 1 32V12Z" fill="#187DC1"/>
<path d="M1 12C1 5.64873 6.14873 0.5 12.5 0.5H32.5C38.8513 0.5 44 5.64873 44 12V32C44 38.3513 38.8513 43.5 32.5 43.5H12.5C6.14873 43.5 1 38.3513 1 32V12Z" stroke="#B3B3B3"/>
<path fill-rule="evenodd" clip-rule="evenodd" d="M17.5 18C17.5 15.2377 19.7377 13 22.5 13C25.2623 13 27.5 15.2377 27.5 18V19H29.5C31 19 31.5 19.72 31.5 20.6V30.1C31.5 31.2046 30.6046 32.1 29.5 32.1H15.5C14.3954 32.1 13.5 31.2046 13.5 30.1V20.6C13.5 19.72 14 19 15.35 19H17.5V18ZM25.5 18V19H19.5V18C19.5 16.3423 20.8423 15 22.5 15C24.1577 15 25.5 16.3423 25.5 18ZM22.5 22C21.3954 22 20.444 22.8968 20.5 24C20.537 24.7298 20.9088 25.3007 21.5 25.5816V27C21.5 27.4142 21.6772 28.5 22.5 28.5C23.3228 28.5 23.5 27.4142 23.5 27V25.5816C24.0912 25.3007 24.463 24.7298 24.5 24C24.556 22.8968 23.6046 22 22.5 22Z" fill="white"/>
</svg>
