<svg width="45" height="44" viewBox="0 0 45 44" fill="none" xmlns="http://www.w3.org/2000/svg">
<path d="M1 12C1 5.64873 6.14873 0.5 12.5 0.5H32.5C38.8513 0.5 44 5.64873 44 12V32C44 38.3513 38.8513 43.5 32.5 43.5H12.5C6.14873 43.5 1 38.3513 1 32V12Z" fill="#187DC1"/>
<path d="M1 12C1 5.64873 6.14873 0.5 12.5 0.5H32.5C38.8513 0.5 44 5.64873 44 12V32C44 38.3513 38.8513 43.5 32.5 43.5H12.5C6.14873 43.5 1 38.3513 1 32V12Z" stroke="#B3B3B3"/>
<g clip-path="url(#clip0_955_4739)">
<path d="M28.4102 12.5525C28.4102 12.3025 28.2402 12.0845 27.9979 12.0239L27.6996 11.9492C27.4007 11.8744 27.1278 11.7197 26.91 11.5017C26.6921 11.2836 26.5376 11.0104 26.4629 10.7113L26.3883 10.413C26.3277 10.1703 26.1099 10 25.86 10C25.6103 10 25.3926 10.17 25.3318 10.4124L25.2567 10.7113C25.1821 11.0103 25.0277 11.2835 24.81 11.5015C24.5923 11.7195 24.3196 11.8743 24.0209 11.9492L23.7226 12.0239C23.4803 12.0845 23.3103 12.3025 23.3103 12.5525C23.3103 12.8025 23.4803 13.0204 23.7226 13.0811L24.0209 13.1557C24.3197 13.2305 24.5927 13.3852 24.8105 13.6033C25.0283 13.8213 25.1829 14.0945 25.2576 14.3937L25.3322 14.6922C25.3927 14.9348 25.6105 15.1049 25.8602 15.1049C26.11 15.1049 26.3277 14.9348 26.3883 14.6922L26.4629 14.3937C26.5376 14.0945 26.6921 13.8213 26.91 13.6033C27.1278 13.3852 27.4007 13.2305 27.6996 13.1557L27.9979 13.0811C28.2402 13.0204 28.4102 12.8025 28.4102 12.5525ZM34.5 17.5C34.5 17.1572 34.2667 16.8583 33.9341 16.7752L33.5247 16.6728C33.1145 16.5703 32.7399 16.3581 32.4409 16.0591C32.1419 15.7601 31.9298 15.3855 31.8272 14.9753L31.7248 14.5659C31.6417 14.2333 31.3428 14 31 14C30.6572 14 30.3584 14.2333 30.2752 14.5659L30.1728 14.9753C30.0703 15.3855 29.8581 15.7601 29.5591 16.0591C29.2602 16.3581 28.8855 16.5703 28.4753 16.6728L28.0659 16.7752C27.7333 16.8583 27.5 17.1572 27.5 17.5C27.5 17.8428 27.7333 18.1417 28.0659 18.2248L28.4753 18.3272C28.8855 18.4298 29.2602 18.6419 29.5591 18.9409C29.8581 19.2399 30.0703 19.6145 30.1728 20.0247L30.2752 20.4341C30.3584 20.7667 30.6572 21 31 21C31.3428 21 31.6417 20.7667 31.7248 20.4341L31.8272 20.0247C31.9298 19.6145 32.1419 19.2399 32.4409 18.9409C32.7399 18.6419 33.1145 18.4298 33.5247 18.3272L33.9341 18.2248C34.2667 18.1417 34.5 17.8428 34.5 17.5ZM20.2135 14.5138C20.4838 13.8287 21.517 13.8287 21.7873 14.5138L23.7371 19.6693C23.822 19.8847 24.0031 20.6172 24.2328 20.6969L28.9521 22.7758C29.6826 23.0293 29.6826 23.9982 28.9521 24.2517L24.2328 25.8346C24.0031 25.9143 23.822 26.6468 23.7371 26.8622L21.7873 31.4862C21.517 32.1713 20.4838 32.1713 20.2135 31.4862L18.2637 26.8622C18.1787 26.6468 17.9977 25.9143 17.768 25.8346L13.0479 24.2517C12.3174 23.9982 12.3174 23.0293 13.0479 22.7758L17.768 20.6969C17.9977 20.6172 18.1787 19.8847 18.2637 19.6693L20.2135 14.5138Z" fill="white"/>
<path d="M28.4102 12.5525C28.4102 12.3025 28.2402 12.0845 27.9979 12.0239L27.6996 11.9492C27.4007 11.8744 27.1278 11.7197 26.91 11.5017C26.6921 11.2836 26.5376 11.0104 26.4629 10.7113L26.3883 10.413C26.3277 10.1703 26.1099 10 25.86 10C25.6103 10 25.3926 10.17 25.3318 10.4124L25.2567 10.7113C25.1821 11.0103 25.0277 11.2835 24.81 11.5015C24.5923 11.7195 24.3196 11.8743 24.0209 11.9492L23.7226 12.0239C23.4803 12.0845 23.3103 12.3025 23.3103 12.5525C23.3103 12.8025 23.4803 13.0204 23.7226 13.0811L24.0209 13.1557C24.3197 13.2305 24.5927 13.3852 24.8105 13.6033C25.0283 13.8213 25.1829 14.0945 25.2576 14.3937L25.3322 14.6922C25.3927 14.9348 25.6105 15.1049 25.8602 15.1049C26.11 15.1049 26.3277 14.9348 26.3883 14.6922L26.4629 14.3937C26.5376 14.0945 26.6921 13.8213 26.91 13.6033C27.1278 13.3852 27.4007 13.2305 27.6996 13.1557L27.9979 13.0811C28.2402 13.0204 28.4102 12.8025 28.4102 12.5525ZM34.5 17.5C34.5 17.1572 34.2667 16.8583 33.9341 16.7752L33.5247 16.6728C33.1145 16.5703 32.7399 16.3581 32.4409 16.0591C32.1419 15.7601 31.9298 15.3855 31.8272 14.9753L31.7248 14.5659C31.6417 14.2333 31.3428 14 31 14C30.6572 14 30.3584 14.2333 30.2752 14.5659L30.1728 14.9753C30.0703 15.3855 29.8581 15.7601 29.5591 16.0591C29.2602 16.3581 28.8855 16.5703 28.4753 16.6728L28.0659 16.7752C27.7333 16.8583 27.5 17.1572 27.5 17.5C27.5 17.8428 27.7333 18.1417 28.0659 18.2248L28.4753 18.3272C28.8855 18.4298 29.2602 18.6419 29.5591 18.9409C29.8581 19.2399 30.0703 19.6145 30.1728 20.0247L30.2752 20.4341C30.3584 20.7667 30.6572 21 31 21C31.3428 21 31.6417 20.7667 31.7248 20.4341L31.8272 20.0247C31.9298 19.6145 32.1419 19.2399 32.4409 18.9409C32.7399 18.6419 33.1145 18.4298 33.5247 18.3272L33.9341 18.2248C34.2667 18.1417 34.5 17.8428 34.5 17.5ZM20.2135 14.5138C20.4838 13.8287 21.517 13.8287 21.7873 14.5138L23.7371 19.6693C23.822 19.8847 24.0031 20.6172 24.2328 20.6969L28.9521 22.7758C29.6826 23.0293 29.6826 23.9982 28.9521 24.2517L24.2328 25.8346C24.0031 25.9143 23.822 26.6468 23.7371 26.8622L21.7873 31.4862C21.517 32.1713 20.4838 32.1713 20.2135 31.4862L18.2637 26.8622C18.1787 26.6468 17.9977 25.9143 17.768 25.8346L13.0479 24.2517C12.3174 23.9982 12.3174 23.0293 13.0479 22.7758L17.768 20.6969C17.9977 20.6172 18.1787 19.8847 18.2637 19.6693L20.2135 14.5138Z" fill="white"/>
<path d="M28.4102 12.5525C28.4102 12.3025 28.2402 12.0845 27.9979 12.0239L27.6996 11.9492C27.4007 11.8744 27.1278 11.7197 26.91 11.5017C26.6921 11.2836 26.5376 11.0104 26.4629 10.7113L26.3883 10.413C26.3277 10.1703 26.1099 10 25.86 10C25.6103 10 25.3926 10.17 25.3318 10.4124L25.2567 10.7113C25.1821 11.0103 25.0277 11.2835 24.81 11.5015C24.5923 11.7195 24.3196 11.8743 24.0209 11.9492L23.7226 12.0239C23.4803 12.0845 23.3103 12.3025 23.3103 12.5525C23.3103 12.8025 23.4803 13.0204 23.7226 13.0811L24.0209 13.1557C24.3197 13.2305 24.5927 13.3852 24.8105 13.6033C25.0283 13.8213 25.1829 14.0945 25.2576 14.3937L25.3322 14.6922C25.3927 14.9348 25.6105 15.1049 25.8602 15.1049C26.11 15.1049 26.3277 14.9348 26.3883 14.6922L26.4629 14.3937C26.5376 14.0945 26.6921 13.8213 26.91 13.6033C27.1278 13.3852 27.4007 13.2305 27.6996 13.1557L27.9979 13.0811C28.2402 13.0204 28.4102 12.8025 28.4102 12.5525ZM34.5 17.5C34.5 17.1572 34.2667 16.8583 33.9341 16.7752L33.5247 16.6728C33.1145 16.5703 32.7399 16.3581 32.4409 16.0591C32.1419 15.7601 31.9298 15.3855 31.8272 14.9753L31.7248 14.5659C31.6417 14.2333 31.3428 14 31 14C30.6572 14 30.3584 14.2333 30.2752 14.5659L30.1728 14.9753C30.0703 15.3855 29.8581 15.7601 29.5591 16.0591C29.2602 16.3581 28.8855 16.5703 28.4753 16.6728L28.0659 16.7752C27.7333 16.8583 27.5 17.1572 27.5 17.5C27.5 17.8428 27.7333 18.1417 28.0659 18.2248L28.4753 18.3272C28.8855 18.4298 29.2602 18.6419 29.5591 18.9409C29.8581 19.2399 30.0703 19.6145 30.1728 20.0247L30.2752 20.4341C30.3584 20.7667 30.6572 21 31 21C31.3428 21 31.6417 20.7667 31.7248 20.4341L31.8272 20.0247C31.9298 19.6145 32.1419 19.2399 32.4409 18.9409C32.7399 18.6419 33.1145 18.4298 33.5247 18.3272L33.9341 18.2248C34.2667 18.1417 34.5 17.8428 34.5 17.5ZM20.2135 14.5138C20.4838 13.8287 21.517 13.8287 21.7873 14.5138L23.7371 19.6693C23.822 19.8847 24.0031 20.6172 24.2328 20.6969L28.9521 22.7758C29.6826 23.0293 29.6826 23.9982 28.9521 24.2517L24.2328 25.8346C24.0031 25.9143 23.822 26.6468 23.7371 26.8622L21.7873 31.4862C21.517 32.1713 20.4838 32.1713 20.2135 31.4862L18.2637 26.8622C18.1787 26.6468 17.9977 25.9143 17.768 25.8346L13.0479 24.2517C12.3174 23.9982 12.3174 23.0293 13.0479 22.7758L17.768 20.6969C17.9977 20.6172 18.1787 19.8847 18.2637 19.6693L20.2135 14.5138Z" fill="white"/>
</g>
<defs>
<clipPath id="clip0_955_4739">
<rect width="24" height="24" fill="white" transform="translate(10.5 10)"/>
</clipPath>
</defs>
</svg>
