<svg width="45" height="44" viewBox="0 0 45 44" fill="none" xmlns="http://www.w3.org/2000/svg">
<path d="M1 12C1 5.64873 6.14873 0.5 12.5 0.5H32.5C38.8513 0.5 44 5.64873 44 12V32C44 38.3513 38.8513 43.5 32.5 43.5H12.5C6.14873 43.5 1 38.3513 1 32V12Z" fill="#187DC1"/>
<path d="M1 12C1 5.64873 6.14873 0.5 12.5 0.5H32.5C38.8513 0.5 44 5.64873 44 12V32C44 38.3513 38.8513 43.5 32.5 43.5H12.5C6.14873 43.5 1 38.3513 1 32V12Z" stroke="#B3B3B3"/>
<path d="M26.7222 13.5C25.9029 13.5 25.0948 13.692 24.3619 14.0609C23.6291 14.4297 22.9916 14.9652 22.5 15.625C21.8354 14.733 20.9088 14.0741 19.8514 13.7416C18.7941 13.4092 17.6597 13.42 16.6088 13.7726C15.5579 14.1252 14.6439 14.8017 13.9962 15.7062C13.3485 16.6107 13 17.6975 13 18.8125C13 25.1786 21.7875 30.1989 22.1569 30.4114C22.2616 30.4706 22.3799 30.5011 22.5 30.4999C22.6202 30.502 22.7387 30.4714 22.8431 30.4114C24.4613 29.4591 25.9791 28.3436 27.3731 27.0822C30.4431 24.302 32 21.5218 32 18.8125C32 17.4035 31.444 16.0523 30.4542 15.056C29.4644 14.0597 28.122 13.5 26.7222 13.5Z" fill="white"/>
</svg>
