<svg width="86" height="85" viewBox="0 0 86 85" fill="none" xmlns="http://www.w3.org/2000/svg">
<path d="M44.5133 85C42.5674 78.0401 40.6214 71.079 38.6217 63.9265C35.4454 70.3968 32.3519 76.6996 29.2571 83.0037C29.202 82.9892 29.1455 82.9734 29.0903 82.9589C29.7968 76.251 30.5019 69.5432 31.2083 62.8353C31.161 62.7971 31.1137 62.7588 31.0665 62.7205C25.7999 66.8912 20.5333 71.0618 15.2667 75.2324C15.2234 75.2034 15.18 75.1757 15.1367 75.1467C18.5046 69.2107 21.8739 63.2734 25.2418 57.3374C25.2129 57.2899 25.1854 57.241 25.1565 57.1936C18.3602 59.104 11.5639 61.0159 4.76764 62.9264C4.744 62.8828 4.71906 62.8393 4.69542 62.7957C10.3769 58.5222 16.0571 54.2486 21.7386 49.9751C21.7203 49.9223 21.7032 49.8695 21.6848 49.8181C14.4618 49.3378 7.23877 48.8562 0.0170695 48.376C0.0118173 48.3258 0.00525215 48.2757 0 48.2256C6.76214 46.1356 13.5256 44.0457 20.2877 41.9571C20.2969 41.8951 20.3074 41.833 20.3166 41.7724C13.9143 38.7364 7.51189 35.7018 1.10952 32.6658C1.12396 32.6078 1.1384 32.5484 1.15416 32.4903C8.10932 33.3176 15.0645 34.1462 22.0196 34.9735C22.0472 34.9273 22.0748 34.8824 22.101 34.8362C17.0445 29.3264 11.9867 23.8153 6.93021 18.3054C6.95647 18.2619 6.98273 18.2183 7.00768 18.1748C13.5545 21.5709 20.1026 24.9658 26.6494 28.3619C26.7006 28.321 26.7518 28.2801 26.803 28.2392C24.001 21.1567 21.1977 14.0728 18.3957 6.9902C18.4403 6.95722 18.4849 6.92424 18.5283 6.88993C23.6294 12.6676 28.7306 18.4466 33.8304 24.2243C33.8934 24.2111 33.9578 24.1979 34.0208 24.1847C33.6229 16.2973 33.2264 8.40856 32.8286 0.521165C32.8745 0.50929 32.9205 0.497416 32.9677 0.485541C35.7172 7.92302 38.4667 15.3605 41.2162 22.798C41.2701 22.8072 41.3226 22.8178 41.3764 22.827C43.8436 15.2167 46.3095 7.60769 48.7754 0C48.8174 0.00659702 48.8594 0.013194 48.9014 0.0211105C48.9014 8.10906 48.9014 16.197 48.9014 24.285C48.9566 24.3113 49.0117 24.3377 49.0669 24.3628C54.0144 17.8331 58.9606 11.302 63.9081 4.77229C63.9554 4.79604 64.0027 4.81978 64.05 4.84221C61.0431 12.3918 58.0362 19.9402 55.0281 27.4898C55.0622 27.5254 55.0964 27.5597 55.1305 27.5953C62.0699 23.393 69.0093 19.1907 75.9487 14.9898C75.9815 15.0241 76.0143 15.057 76.0485 15.0913C70.774 21.0973 65.4995 27.1045 60.2251 33.1105C60.25 33.158 60.275 33.2055 60.2999 33.2516C68.1125 31.7673 75.9251 30.2843 83.7376 28.8C83.756 28.8461 83.7744 28.8923 83.7928 28.9385C76.7103 32.2476 69.6264 35.5566 62.5439 38.8657C62.5386 38.9198 62.5321 38.9739 62.5268 39.028C70.3512 40.858 78.1756 42.6867 86 44.5167C86 44.5629 85.9987 44.6104 85.9987 44.6566C78.391 45.2107 70.7819 45.7649 63.1742 46.3203C63.1492 46.3771 63.1256 46.4325 63.1006 46.4892C69.5779 50.7654 76.0551 55.0416 82.5323 59.3165C82.5165 59.3627 82.5008 59.4088 82.4837 59.4537C75.0716 57.5564 67.6582 55.6591 60.0504 53.713C64.4675 59.963 68.769 66.0494 73.0705 72.1358C73.0364 72.1701 73.0036 72.2057 72.9694 72.24C67.0397 68.0061 61.1101 63.7708 55.1791 59.5368C55.1292 59.5645 55.0806 59.5935 55.0307 59.6213C56.7311 66.9123 58.4302 74.2033 60.1305 81.4943C60.0793 81.5181 60.0281 81.5432 59.9769 81.5669C55.9118 75.5649 51.8453 69.5643 47.7788 63.5623C47.7223 63.5742 47.6659 63.5847 47.6094 63.5966C46.6404 70.7188 45.6714 77.8409 44.7024 84.9631C44.642 84.9749 44.5776 84.9881 44.5133 85Z" fill="white"/>
</svg>
