<svg width="29" height="30" viewBox="0 0 29 30" fill="none" xmlns="http://www.w3.org/2000/svg">
<g clip-path="url(#clip0_955_4606)">
<path d="M15.0103 29.5409C14.3541 27.1397 13.6979 24.7381 13.0236 22.2705C11.9525 24.5028 10.9094 26.6773 9.86577 28.8522C9.84717 28.8472 9.82813 28.8417 9.80953 28.8367C10.0477 26.5225 10.2855 24.2083 10.5237 21.8941C10.5078 21.8809 10.4918 21.8677 10.4759 21.8545C8.69996 23.2934 6.92401 24.7322 5.14807 26.1711C5.13346 26.1611 5.11885 26.1515 5.10423 26.1415C6.23994 24.0936 7.37608 22.0452 8.51178 19.9973C8.50204 19.9809 8.49274 19.9641 8.483 19.9477C6.19123 20.6068 3.89946 21.2664 1.60769 21.9255C1.59972 21.9105 1.59131 21.8955 1.58334 21.8804C3.4992 20.4061 5.41461 18.9317 7.33047 17.4573C7.32427 17.4391 7.31852 17.4209 7.31232 17.4032C4.87665 17.2375 2.44098 17.0713 0.00575599 16.9057C0.00398492 16.8884 0.00177107 16.8711 0 16.8538C2.28026 16.1327 4.56096 15.4117 6.84121 14.6912C6.84431 14.6698 6.84786 14.6484 6.85096 14.6274C4.69202 13.58 2.53308 12.5331 0.374139 11.4857C0.37901 11.4657 0.38388 11.4452 0.389193 11.4252C2.73454 11.7106 5.07988 11.9964 7.42523 12.2818C7.43452 12.2659 7.44382 12.2504 7.45268 12.2345C5.74758 10.3336 4.04203 8.43227 2.33693 6.53139C2.34579 6.51637 2.35464 6.50135 2.36305 6.48633C4.5707 7.65799 6.77878 8.8292 8.98643 10.0009C9.0037 9.98675 9.02096 9.97264 9.03823 9.95853C8.09336 7.51506 7.14805 5.07114 6.20319 2.62767C6.21824 2.61629 6.23329 2.60491 6.2479 2.59307C7.96806 4.58636 9.68822 6.5801 11.4079 8.57338C11.4292 8.56883 11.4509 8.56428 11.4721 8.55972C11.338 5.83859 11.2043 3.117 11.0701 0.395865C11.0856 0.391768 11.1011 0.387672 11.117 0.383575C12.0442 2.94949 12.9713 5.5154 13.8985 8.08132C13.9167 8.0845 13.9344 8.08815 13.9525 8.09133C14.7845 5.46579 15.616 2.8407 16.4475 0.216064C16.4617 0.21834 16.4759 0.220616 16.49 0.223348C16.49 3.01367 16.49 5.80399 16.49 8.59432C16.5086 8.60342 16.5272 8.61253 16.5458 8.62117C18.2142 6.36843 19.8821 4.11523 21.5504 1.86249C21.5664 1.87069 21.5823 1.87888 21.5982 1.88662C20.5843 4.49122 19.5704 7.09537 18.556 9.69998C18.5675 9.71227 18.579 9.7241 18.5905 9.73639C20.9305 8.28661 23.2706 6.83682 25.6106 5.3875C25.6217 5.39933 25.6327 5.41071 25.6443 5.42254C23.8657 7.49458 22.0871 9.56706 20.3085 11.6391C20.3169 11.6555 20.3253 11.6719 20.3337 11.6878C22.9682 11.1757 25.6026 10.6641 28.2371 10.152C28.2433 10.1679 28.2495 10.1838 28.2557 10.1998C25.8674 11.3414 23.4787 12.483 21.0904 13.6246C21.0886 13.6433 21.0864 13.662 21.0846 13.6806C23.7231 14.312 26.3615 14.9429 29 15.5742C29 15.5902 28.9996 15.6065 28.9996 15.6225C26.4342 15.8137 23.8683 16.0048 21.3029 16.1965C21.2945 16.216 21.2865 16.2352 21.2781 16.2547C23.4623 17.73 25.6465 19.2053 27.8307 20.6801C27.8253 20.696 27.82 20.712 27.8143 20.7274C25.3148 20.0729 22.815 19.4183 20.2496 18.7469C21.739 20.9032 23.1896 23.0029 24.6401 25.1027C24.6285 25.1146 24.6175 25.1269 24.606 25.1387C22.6064 23.678 20.6069 22.2168 18.6069 20.7561C18.5901 20.7657 18.5737 20.7757 18.5569 20.7853C19.1303 23.3006 19.7032 25.816 20.2766 28.3314C20.2593 28.3396 20.242 28.3483 20.2248 28.3565C18.854 26.2858 17.4827 24.2156 16.1115 22.1449C16.0924 22.149 16.0734 22.1527 16.0543 22.1567C15.7276 24.6139 15.4008 27.071 15.0741 29.5281C15.0537 29.5322 15.032 29.5368 15.0103 29.5409Z" fill="white"/>
</g>
<defs>
<clipPath id="clip0_955_4606">
<rect width="29" height="29.3248" fill="white" transform="translate(0 0.216064)"/>
</clipPath>
</defs>
</svg>
