<svg width="60" height="60" viewBox="0 0 60 60" fill="none" xmlns="http://www.w3.org/2000/svg">
<rect width="60" height="60" rx="12" fill="#106AD4" fill-opacity="0.1"/>
<path fill-rule="evenodd" clip-rule="evenodd" d="M21 33C21 34.6569 19.6569 36 18 36C16.3431 36 15 34.6569 15 33C15 31.3431 16.3431 30 18 30C19.6569 30 21 31.3431 21 33ZM21.071 38.1556C22.8252 37.1084 24 35.1914 24 33C24 29.6863 21.3137 27 18 27C14.6863 27 12 29.6863 12 33C12 35.1914 13.1748 37.1084 14.929 38.1556C12.3181 39.3288 10.5 41.9521 10.5 45V47.0426C10.5 48.3998 11.6002 49.5 12.9574 49.5H23.0426C24.3998 49.5 25.5 48.3998 25.5 47.0426V45C25.5 41.9521 23.6819 39.3288 21.071 38.1556ZM13.5 45C13.5 42.5147 15.5147 40.5 18 40.5C20.4853 40.5 22.5 42.5147 22.5 45V46.5H13.5V45Z" fill="#1E1E1E"/>
<path d="M33 48L37.6583 38.6833C38.2111 37.5777 39.7888 37.5777 40.3416 38.6833L45 48M39 18H42C45.3137 18 48 20.6863 48 24V30C48 33.3137 45.3137 36 42 36H36C32.6863 36 30 33.3137 30 30V27" stroke="#1E1E1E" stroke-width="3" stroke-linecap="round"/>
<path d="M36 24H42M36 30H42" stroke="#106AD4" stroke-width="3" stroke-linecap="round"/>
<path d="M12 15C12 11.6863 14.6863 9 18 9H27C30.3137 9 33 11.6863 33 15V15C33 18.3137 30.3137 21 27 21H26.4853C24.894 21 23.3679 21.6321 22.2426 22.7574L21 24L18.7279 21.7279C18.2618 21.2618 17.6297 21 16.9706 21V21C14.2254 21 12 18.7746 12 16.0294V15Z" stroke="#106AD4" stroke-width="3" stroke-linecap="round" stroke-linejoin="round"/>
</svg>
