<svg width="60" height="60" viewBox="0 0 60 60" fill="none" xmlns="http://www.w3.org/2000/svg">
<rect width="60" height="60" rx="12" fill="#106AD4" fill-opacity="0.1"/>
<path d="M30 15V30M30 42H18C14.6863 42 12 39.3137 12 36V21C12 17.6863 14.6863 15 18 15H42C45.3137 15 48 17.6863 48 21V28.5M18 21H24M36 21H39M36 27H42M18 27H21M18 33H24" stroke="#1E1E1E" stroke-width="3" stroke-linecap="round"/>
<path d="M51 41.9999L51 39.0002C51 35.6864 48.3136 33.0001 44.9998 33.0002L41.9998 33.0002C38.6862 33.0003 36 35.6866 36 39.0002L36 41.9999C36 45.3137 38.6863 48 42.0001 47.9999L45.0001 47.9999C48.3138 47.9998 51 45.3136 51 41.9999Z" stroke="#106AD4" stroke-width="3" stroke-linecap="round" stroke-linejoin="round"/>
<path d="M43.4924 45C43.066 45 42.736 44.867 42.5025 44.6011C42.269 44.3351 42.1523 43.9521 42.1523 43.4521V41.4096C42.1523 40.9096 42.269 40.5266 42.5025 40.2606C42.736 39.9947 43.066 39.8617 43.4924 39.8617C43.9289 39.8617 44.264 39.9947 44.4975 40.2606C44.7411 40.5266 44.8629 40.9096 44.8629 41.4096V43.4521C44.8629 43.9521 44.7462 44.3351 44.5127 44.6011C44.2792 44.867 43.9391 45 43.4924 45ZM43.4924 38.7287C43.0152 38.7287 42.6447 38.6117 42.3807 38.3777C42.1269 38.1436 42 37.8032 42 37.3564C42 36.9202 42.1269 36.5851 42.3807 36.3511C42.6447 36.117 43.0152 36 43.4924 36C43.9898 36 44.3655 36.117 44.6193 36.3511C44.8731 36.5851 45 36.9202 45 37.3564C45 37.8032 44.8731 38.1436 44.6193 38.3777C44.3655 38.6117 43.9898 38.7287 43.4924 38.7287Z" fill="#1E1E1E"/>
</svg>
