<svg width="60" height="60" viewBox="0 0 60 60" fill="none" xmlns="http://www.w3.org/2000/svg">
<rect width="60" height="60" rx="12" fill="#106AD4" fill-opacity="0.1"/>
<path d="M24 18.0838V25.5991L19.5354 26.7974C18.5291 27.0675 17.4709 27.0675 16.4646 26.7974L12 25.5991V18.0838M9 16.5629L18 12L27 16.5629L18 21.1257L9 16.5629Z" stroke="#106AD4" stroke-width="3" stroke-linecap="round" stroke-linejoin="round"/>
<path d="M45 39V24C45 20.6863 42.3137 18 39 18L30 18M45 39L15 39M45 39C46.6569 39 48 40.3431 48 42C48 43.6569 46.6569 45 45 45L15 45C13.3431 45 12 43.6569 12 42C12 40.3431 13.3431 39 15 39M15 39L15 33M21 33H24M33 33H36C37.6569 33 39 31.6569 39 30V27C39 25.3431 37.6569 24 36 24H33C31.3431 24 30 25.3431 30 27V30C30 31.6569 31.3431 33 33 33Z" stroke="#1E1E1E" stroke-width="3" stroke-linecap="round"/>
</svg>
