<svg width="52" height="52" viewBox="0 0 52 52" fill="none" xmlns="http://www.w3.org/2000/svg">
<g clip-path="url(#clip0_955_4661)">
<path d="M0 12.1883V46.9515C0 49.7397 2.26031 52 5.04854 52H39.8117C44.3095 52 46.562 46.562 43.3816 43.3816L8.6184 8.6184C5.438 5.438 0 7.69049 0 12.1883Z" fill="#106AD4"/>
<path fill-rule="evenodd" clip-rule="evenodd" d="M38.2166 38.7215C37.4966 39.4416 36.3291 39.4416 35.6091 38.7215L28.569 31.6815C27.849 30.9615 27.849 29.794 28.569 29.074C29.2891 28.3539 30.4565 28.3539 31.1766 29.074L38.2166 36.114C38.9367 36.834 38.9367 38.0015 38.2166 38.7215Z" fill="#3A405A"/>
<path fill-rule="evenodd" clip-rule="evenodd" d="M38.2168 8.73485C38.9369 9.4549 38.9369 10.6223 38.2168 11.3424L31.1768 18.3824C30.4567 19.1025 29.2893 19.1025 28.5692 18.3824C27.8492 17.6624 27.8492 16.4949 28.5692 15.7749L35.6093 8.73485C36.3293 8.01479 37.4968 8.01479 38.2168 8.73485Z" fill="#3A405A"/>
<path fill-rule="evenodd" clip-rule="evenodd" d="M23.2233 2.52427C24.3386 2.52427 25.2427 3.34978 25.2427 4.36809V43.0882C25.2427 44.1065 24.3386 44.932 23.2233 44.932C22.108 44.932 21.2039 44.1065 21.2039 43.0882V4.36809C21.2039 3.34978 22.108 2.52427 23.2233 2.52427Z" fill="#3A405A"/>
<path fill-rule="evenodd" clip-rule="evenodd" d="M17.8774 29.074C18.5975 29.794 18.5975 30.9615 17.8774 31.6815L10.8374 38.7215C10.1174 39.4416 8.94992 39.4416 8.22987 38.7215C7.50981 38.0015 7.50981 36.8341 8.22987 36.114L15.2699 29.074C15.9899 28.3539 17.1574 28.3539 17.8774 29.074Z" fill="#3A405A"/>
<path fill-rule="evenodd" clip-rule="evenodd" d="M17.8775 18.3824C17.1574 19.1025 15.99 19.1025 15.2699 18.3824L8.22991 11.3424C7.50986 10.6223 7.50986 9.4549 8.22991 8.73485C8.94997 8.01479 10.1174 8.01479 10.8375 8.73485L17.8775 15.7749C18.5975 16.4949 18.5975 17.6624 17.8775 18.3824Z" fill="#3A405A"/>
<path fill-rule="evenodd" clip-rule="evenodd" d="M44.4272 23.7282C44.4272 24.8435 43.6017 25.7476 42.5834 25.7476L3.86323 25.7476C2.84492 25.7476 2.01942 24.8434 2.01942 23.7282C2.01942 22.6129 2.84492 21.7087 3.86323 21.7087L42.5834 21.7087C43.6017 21.7087 44.4272 22.6129 44.4272 23.7282Z" fill="#3A405A"/>
</g>
<defs>
<clipPath id="clip0_955_4661">
<rect width="51.5" height="51.5" fill="white" transform="scale(1.00971)"/>
</clipPath>
</defs>
</svg>
