<svg width="29" height="30" viewBox="0 0 29 30" fill="none" xmlns="http://www.w3.org/2000/svg">
<g clip-path="url(#clip0_955_4604)">
<path d="M15.0103 29.3248C14.3541 26.9237 13.6979 24.5221 13.0236 22.0545C11.9525 24.2867 10.9094 26.4612 9.86577 28.6361C9.84717 28.6311 9.82813 28.6256 9.80953 28.6206C10.0477 26.3064 10.2855 23.9922 10.5237 21.678C10.5078 21.6648 10.4918 21.6516 10.4759 21.6384C8.69996 23.0773 6.92401 24.5162 5.14807 25.955C5.13346 25.945 5.11885 25.9354 5.10423 25.9254C6.23994 23.8775 7.37608 21.8292 8.51178 19.7813C8.50204 19.7649 8.49274 19.748 8.483 19.7316C6.19123 20.3908 3.89946 21.0503 1.60769 21.7094C1.59972 21.6944 1.59131 21.6794 1.58334 21.6644C3.4992 20.19 5.41461 18.7157 7.33047 17.2413C7.32427 17.2231 7.31852 17.2049 7.31232 17.1871C4.87665 17.0214 2.44098 16.8553 0.00575599 16.6896C0.00398492 16.6723 0.00177107 16.655 0 16.6377C2.28026 15.9167 4.56096 15.1957 6.84121 14.4751C6.84431 14.4537 6.84786 14.4323 6.85096 14.4114C4.69202 13.364 2.53308 12.317 0.374139 11.2696C0.37901 11.2496 0.38388 11.2291 0.389193 11.2091C2.73454 11.4945 5.07988 11.7804 7.42523 12.0658C7.43452 12.0498 7.44382 12.0344 7.45268 12.0184C5.74758 10.1175 4.04203 8.21621 2.33693 6.31533C2.34579 6.30031 2.35464 6.28528 2.36305 6.27026C4.5707 7.44193 6.77878 8.61313 8.98643 9.7848C9.0037 9.77069 9.02096 9.75657 9.03823 9.74246C8.09336 7.29899 7.14805 4.85507 6.20319 2.4116C6.21824 2.40022 6.23329 2.38884 6.2479 2.37701C7.96806 4.37029 9.68822 6.36403 11.4079 8.35732C11.4292 8.35276 11.4509 8.34821 11.4721 8.34366C11.338 5.62253 11.2043 2.90093 11.0701 0.179801C11.0856 0.175704 11.1011 0.171607 11.117 0.16751C12.0442 2.73342 12.9713 5.29934 13.8985 7.86525C13.9167 7.86844 13.9344 7.87208 13.9525 7.87527C14.7845 5.24972 15.616 2.62463 16.4475 0C16.4617 0.00227596 16.4759 0.00455191 16.49 0.00728306C16.49 2.79761 16.49 5.58793 16.49 8.37825C16.5086 8.38736 16.5272 8.39646 16.5458 8.40511C18.2142 6.15237 19.8821 3.89917 21.5504 1.64643C21.5664 1.65462 21.5823 1.66281 21.5982 1.67055C20.5843 4.27516 19.5704 6.87931 18.556 9.48391C18.5675 9.4962 18.579 9.50804 18.5905 9.52033C20.9305 8.07054 23.2706 6.62076 25.6106 5.17143C25.6217 5.18327 25.6327 5.19464 25.6443 5.20648C23.8657 7.27851 22.0871 9.351 20.3085 11.423C20.3169 11.4394 20.3253 11.4558 20.3337 11.4717C22.9682 10.9596 25.6026 10.448 28.2371 9.93592C28.2433 9.95185 28.2495 9.96778 28.2557 9.98371C25.8674 11.1253 23.4787 12.267 21.0904 13.4086C21.0886 13.4272 21.0864 13.4459 21.0846 13.4646C23.7231 14.0959 26.3615 14.7268 29 15.3582C29 15.3741 28.9996 15.3905 28.9996 15.4064C26.4342 15.5976 23.8683 15.7888 21.3029 15.9804C21.2945 16 21.2865 16.0191 21.2781 16.0387C23.4623 17.5139 25.6465 18.9892 27.8307 20.464C27.8253 20.48 27.82 20.4959 27.8143 20.5114C25.3148 19.8568 22.815 19.2023 20.2496 18.5308C21.739 20.6871 23.1896 22.7869 24.6401 24.8867C24.6285 24.8985 24.6175 24.9108 24.606 24.9226C22.6064 23.4619 20.6069 22.0008 18.6069 20.5401C18.5901 20.5496 18.5737 20.5596 18.5569 20.5692C19.1303 23.0846 19.7032 25.6 20.2766 28.1154C20.2593 28.1235 20.242 28.1322 20.2248 28.1404C18.854 26.0697 17.4827 23.9995 16.1115 21.9288C16.0924 21.9329 16.0734 21.9366 16.0543 21.9407C15.7276 24.3978 15.4008 26.8549 15.0741 29.3121C15.0537 29.3162 15.032 29.3207 15.0103 29.3248Z" fill="white"/>
</g>
<defs>
<clipPath id="clip0_955_4604">
<rect width="29" height="29.3248" fill="white"/>
</clipPath>
</defs>
</svg>
